<svg width="631" height="468" viewBox="0 0 631 468" fill="none" xmlns="http://www.w3.org/2000/svg">
<circle cx="497.93" cy="151.465" r="132.419" fill="url(#paint0_linear)"/>
<circle cx="167.791" cy="300.209" r="167.791" fill="url(#paint1_linear)"/>
<path opacity="0.2" d="M556.884 121.988C556.884 189.361 502.268 243.977 434.896 243.977C367.523 243.977 312.907 189.361 312.907 121.988C312.907 54.6161 367.523 0 434.896 0C502.268 0 556.884 54.6161 556.884 121.988ZM320.54 121.988C320.54 185.145 371.739 236.344 434.896 236.344C498.052 236.344 549.251 185.145 549.251 121.988C549.251 58.8318 498.052 7.63321 434.896 7.63321C371.739 7.63321 320.54 58.8318 320.54 121.988Z" fill="#FF8516"/>
<path d="M407.233 283.431C407.233 362.324 343.277 426.28 264.384 426.28C185.491 426.28 121.535 362.324 121.535 283.431C121.535 204.538 185.491 140.582 264.384 140.582C343.277 140.582 407.233 204.538 407.233 283.431ZM130.474 283.431C130.474 357.387 190.427 417.341 264.384 417.341C338.341 417.341 398.294 357.387 398.294 283.431C398.294 209.474 338.341 149.521 264.384 149.521C190.427 149.521 130.474 209.474 130.474 283.431Z" fill="#FF8516"/>
<defs>
<linearGradient id="paint0_linear" x1="630.349" y1="72.105" x2="365.512" y2="224.931" gradientUnits="userSpaceOnUse">
<stop stop-color="#FCCB21"/>
<stop offset="1" stop-color="#FF8516"/>
</linearGradient>
<linearGradient id="paint1_linear" x1="30.3837" y1="224.93" x2="302.477" y2="407.685" gradientUnits="userSpaceOnUse">
<stop stop-color="#FCCB21"/>
<stop offset="1" stop-color="#FF8516"/>
</linearGradient>
</defs>
</svg>
