<?xml version="1.0"?>
<svg xmlns="http://www.w3.org/2000/svg" id="Outline" viewBox="0 0 512 512" width="512" height="512"><circle cx="280" cy="224" r="8"/><circle cx="360" cy="224" r="8"/><path d="M129.367,424H112a8,8,0,0,0,0,16h17.367a8,8,0,0,0,0-16Z"/><path d="M96,343.2V368a8,8,0,0,0,8,8h64a8,8,0,0,0,8-8V304a8,8,0,0,0-8-8H143.2A40,40,0,1,0,96,343.2ZM160,360H112V343.2A40.119,40.119,0,0,0,143.2,312H160Zm-48-33.376V312h14.624A24.119,24.119,0,0,1,112,326.624ZM104,280a24.039,24.039,0,0,1,22.624,16H104a8,8,0,0,0-8,8v22.624A24,24,0,0,1,104,280Z"/><path d="M488,376h-8V304a7.994,7.994,0,0,0-.845-3.578l-16-32a8,8,0,0,0-14.31,0l-16,32A7.994,7.994,0,0,0,432,304v13.41A55.912,55.912,0,0,0,408,312H352V299.872A71.972,71.972,0,0,0,373.185,288H376a72.081,72.081,0,0,0,72-72V160A120.136,120.136,0,0,0,328,40H312A120.136,120.136,0,0,0,192,160v40H40a24.028,24.028,0,0,0-24,24V448a24.028,24.028,0,0,0,24,24H488a8,8,0,0,0,8-8V384A8,8,0,0,0,488,376Zm-32-86.111,8,16V376H448V305.889Zm-24,46.119v41.368A24.076,24.076,0,0,0,422.131,384H408a24,24,0,0,0,0,48h8v16a23.889,23.889,0,0,0,1.376,8H222.624A23.889,23.889,0,0,0,224,448V328.8a40.217,40.217,0,0,1,8-.8h11.883l37.607,52.65a8,8,0,0,0,11.31,1.75L320,362l27.2,20.4a8,8,0,0,0,11.31-1.75L396.117,328H408A39.886,39.886,0,0,1,432,336.008ZM416,416h-8a8,8,0,1,1,0-16h8ZM264,288h2.815A71.972,71.972,0,0,0,288,299.872V312H232a56.464,56.464,0,0,0-8,.578v-36.73A72.031,72.031,0,0,0,264,288Zm84,40h28.454l-26.2,36.688L331.2,350.4Zm-56,0,16.8,22.4-19.05,14.288L263.546,328Zm-84,64H32V248H208Zm128-74.666-16,21.333-16-21.333V303.545a72.383,72.383,0,0,0,8,.455h16a72.383,72.383,0,0,0,8-.455ZM328,288H312a56.063,56.063,0,0,1-56-56V192H384v40A56.063,56.063,0,0,1,328,288ZM312,56h16A104.118,104.118,0,0,1,432,160v56a56.086,56.086,0,0,1-43.21,54.509A71.548,71.548,0,0,0,400,232V184a8,8,0,0,0-8-8H376V152a8,8,0,0,0-16,0v24H344V152a8,8,0,0,0-16,0v24H312V152a8,8,0,0,0-16,0v24H280V152a8,8,0,0,0-16,0v24H248a8,8,0,0,0-8,8v48a71.547,71.547,0,0,0,11.2,38.5,56.09,56.09,0,0,1-27.2-15.3V224a24.039,24.039,0,0,0-16-22.624V160A104.118,104.118,0,0,1,312,56ZM40,216H200a8.009,8.009,0,0,1,8,8v8H32v-8A8.009,8.009,0,0,1,40,216Zm0,240a8.009,8.009,0,0,1-8-8V408H208v40a8.009,8.009,0,0,1-8,8Zm440,0H440a8.009,8.009,0,0,1-8-8V400a8.009,8.009,0,0,1,8-8h40Z"/></svg>
