<svg id="Capa_1" enable-background="new 0 0 512 512" height="512" viewBox="0 0 512 512" width="512" xmlns="http://www.w3.org/2000/svg"><path d="m80.821 365.15c-1.699 3.778-.013 8.217 3.765 9.916 5.698 2.562 12.306 3.916 19.108 3.916 6.803 0 13.41-1.354 19.108-3.916 3.778-1.699 5.463-6.138 3.765-9.916-1.699-3.778-6.139-5.463-9.916-3.764-3.778 1.699-8.258 2.597-12.957 2.597-4.698 0-9.178-.898-12.957-2.597s-8.218-.014-9.916 3.764z"/><path d="m171.312 445.693-28.053-10.52v-7.182c20.976-4.205 39.211-11.621 53.015-21.629 1.946-1.411 3.098-3.668 3.098-6.072v-88.177c0-52.757-42.921-95.677-95.678-95.677-52.756 0-95.677 42.921-95.677 95.677v88.177c0 2.404 1.152 4.661 3.098 6.072 13.804 10.008 32.04 17.425 53.015 21.629v7.182l-28.054 10.52c-21.578 8.093-36.076 29.013-36.076 52.057v6.75c0 4.142 3.358 7.5 7.5 7.5s7.5-3.358 7.5-7.5v-6.75c0-16.827 10.586-32.104 26.342-38.012l24.157-9.059c4.548 16.832 19.944 29.256 38.194 29.256s33.646-12.424 38.194-29.256l24.157 9.059c15.756 5.909 26.343 21.185 26.343 38.012v6.75c0 4.142 3.358 7.5 7.5 7.5s7.5-3.358 7.5-7.5v-6.75c0-23.044-14.497-43.964-36.075-52.057zm-148.296-49.342v-84.239c0-44.486 36.192-80.677 80.677-80.677 44.486 0 80.678 36.192 80.678 80.677v84.239c-10.925 7.152-25.188 12.793-41.113 16.31v-8.812c19.309-12.845 32.064-34.793 32.064-59.672v-22.365c0-12.198-9.102-22.262-21.171-23.409-18.834-1.79-54.037-7.35-78.185-24.473-3.38-2.396-8.06-1.6-10.457 1.78-2.396 3.379-1.599 8.06 1.78 10.456 26.992 19.14 65.118 25.238 85.442 27.17 4.327.411 7.59 4.055 7.59 8.476v22.365c0 31.225-25.404 56.629-56.629 56.629s-56.629-25.404-56.629-56.629v-16.363c0-6.107 2.258-11.963 6.357-16.49l1.987-2.194c2.781-3.07 2.545-7.813-.524-10.594-3.07-2.78-7.813-2.546-10.594.525l-1.987 2.194c-6.603 7.29-10.239 16.722-10.239 26.559v16.363c0 24.879 12.756 46.827 32.064 59.672v8.812c-15.923-3.516-30.186-9.158-41.111-16.31zm80.677 68.585c-13.545 0-24.564-11.02-24.564-24.564v-28.905c7.665 2.807 15.939 4.34 24.565 4.34 8.625 0 16.899-1.533 24.564-4.34v28.905c0 13.544-11.019 24.564-24.565 24.564z"/><path d="m79.645 343.661c4.142 0 7.5-3.358 7.5-7.5v-8.016c0-4.142-3.358-7.5-7.5-7.5s-7.5 3.358-7.5 7.5v8.016c0 4.142 3.358 7.5 7.5 7.5z"/><path d="m127.742 343.661c4.142 0 7.5-3.358 7.5-7.5v-8.016c0-4.142-3.358-7.5-7.5-7.5s-7.5 3.358-7.5 7.5v8.016c0 4.142 3.358 7.5 7.5 7.5z"/><path d="m472.436 0h-336.678c-21.816 0-39.565 17.749-39.565 39.564v152.306c0 4.142 3.358 7.5 7.5 7.5s7.5-3.358 7.5-7.5v-152.306c0-13.545 11.02-24.564 24.565-24.564h336.677c13.545 0 24.565 11.02 24.565 24.564v240.484c0 13.545-11.02 24.564-24.564 24.564h-248.504c-4.142 0-7.5 3.358-7.5 7.5s3.358 7.5 7.5 7.5h248.504c21.816 0 39.564-17.749 39.564-39.564v-240.484c0-21.815-17.749-39.564-39.564-39.564z"/><path d="m239.968 392.79h-8.532v-32.58c0-4.142-3.358-7.5-7.5-7.5s-7.5 3.358-7.5 7.5v144.29c0 4.142 3.358 7.5 7.5 7.5s7.5-3.358 7.5-7.5v-56.629h17.064v56.629c0 4.142 3.358 7.5 7.5 7.5s7.5-3.358 7.5-7.5v-88.177c0-12.976-10.557-23.533-23.532-23.533zm-8.532 15h8.532c4.705 0 8.532 3.828 8.532 8.532v16.548h-17.064z"/><path d="m247.984 64.129c-52.757 0-95.677 42.921-95.677 95.677 0 52.757 42.92 95.677 95.677 95.677s95.677-42.921 95.677-95.677-42.92-95.677-95.677-95.677zm80.316 88.177h-72.816v-72.816c38.509 3.569 69.248 34.307 72.816 72.816zm-131.785-54.575c12.169-10.107 27.346-16.701 43.969-18.241v62.21zm51.469 142.753c-44.485 0-80.677-36.192-80.677-80.677 0-19.548 6.992-37.491 18.602-51.469l56.772 56.772c1.406 1.406 3.314 2.197 5.303 2.197h80.316c-3.797 40.98-38.361 73.177-80.316 73.177z"/><path d="m336.677 247.984c0 4.142 3.358 7.5 7.5 7.5h128.258c4.142 0 7.5-3.358 7.5-7.5s-3.358-7.5-7.5-7.5h-8.532v-88.694c0-4.142-3.358-7.5-7.5-7.5s-7.5 3.358-7.5 7.5v88.694h-17.064v-40.597c0-4.142-3.358-7.5-7.5-7.5s-7.5 3.358-7.5 7.5v40.597h-17.064v-64.645c0-4.142-3.358-7.5-7.5-7.5s-7.5 3.358-7.5 7.5v64.645h-17.065v-24.564c0-4.142-3.358-7.5-7.5-7.5s-7.5 3.358-7.5 7.5v24.564h-8.532c-4.143 0-7.501 3.358-7.501 7.5z"/><path d="m464.419 64.129h-112.226c-4.142 0-7.5 3.358-7.5 7.5s3.358 7.5 7.5 7.5h112.226c4.142 0 7.5-3.358 7.5-7.5s-3.357-7.5-7.5-7.5z"/><path d="m464.419 96.194h-72.145c-4.142 0-7.5 3.358-7.5 7.5s3.358 7.5 7.5 7.5h72.145c4.142 0 7.5-3.358 7.5-7.5s-3.357-7.5-7.5-7.5z"/></svg>