<?xml version="1.0"?>
<svg xmlns="http://www.w3.org/2000/svg" id="outline" viewBox="0 0 512 512" width="512" height="512"><path d="M184,160h8a24.0275,24.0275,0,0,0,24-24v-8H200v8a8.00917,8.00917,0,0,1-8,8h-8Z"/><circle cx="176" cy="112" r="8"/><circle cx="224" cy="112" r="8"/><path d="M488,352h-3.71875L462.948,320H480a8.00008,8.00008,0,0,0,8-8V288a8.00008,8.00008,0,0,0-8-8H461.16309l-5.05262-70.73633,15.31726-38.293A7.99723,7.99723,0,0,0,472,168V128.249a31.84664,31.84664,0,0,0-20.11523-29.71093l-21.31446-8.52637a28.11753,28.11753,0,0,0-38.557,25.58765,18.99351,18.99351,0,0,0-22.56458,21.75415l6.66016,39.96191a7.9952,7.9952,0,0,0,.73584,2.26269l14.46069,28.92139L373.787,256.67505a80.82973,80.82973,0,0,0-20.739,5.58838l-2.97375-3.46948a7.996,7.996,0,0,0-2.24317-1.81739l-86.47412-47.167L242.104,184.13916A63.85248,63.85248,0,0,0,264,136V60a44.04978,44.04978,0,0,0-44-44H176a40.04552,40.04552,0,0,0-40,40v80a63.85248,63.85248,0,0,0,21.896,48.13916l-19.25293,25.67041L64.71973,250.13086A40.04674,40.04674,0,0,0,44.93848,276.085L16.21289,398.168a7.99432,7.99432,0,0,0-.084,3.26269l16,88A8.00006,8.00006,0,0,0,40,496H448a8.00058,8.00058,0,0,0,7.76123-9.94043l-8-32A8.00005,8.00005,0,0,0,440,448H392V384h16v-.02783A39.96366,39.96366,0,0,0,440,400h16a40.04552,40.04552,0,0,0,40-40A8.00008,8.00008,0,0,0,488,352Zm-22.948,0H430.948L448,326.42188ZM472,304H434.6665l-17.06689-12.80078a56.00269,56.00269,0,0,0-67.19971,0L333.3335,304H296v-8h32a8.00222,8.00222,0,0,0,4.7998-1.59961l12.8003-9.60059a64.0005,64.0005,0,0,1,76.7998,0l.00049.001,12.79981,9.59961A8.00222,8.00222,0,0,0,440,296h32ZM360,352h-3.71875L334.948,320H336a8.00222,8.00222,0,0,0,4.7998-1.59961L360,304a40.22928,40.22928,0,0,1,16-7.18164V368h-8.80493A40.02741,40.02741,0,0,0,368,360,8.00008,8.00008,0,0,0,360,352Zm-32,32H312a24.04118,24.04118,0,0,1-22.62891-16h61.25782A24.04118,24.04118,0,0,1,328,384Zm-25.052-32L320,326.42188,337.052,352Zm139.7185-72L432,272l.00049.001a80.565,80.565,0,0,0-41.05737-15.68457L405.60352,216h34.94775l4.57141,64ZM386.86621,131.51074a3.03957,3.03957,0,0,1,3.87988,1.03028l10.59766,15.89648a8.002,8.002,0,0,0,3.07813,2.71777A20.83107,20.83107,0,0,1,416,169.88867V176h16v-6.11133a36.724,36.724,0,0,0-18.44775-31.98242L408,129.57715V116.124a12.1245,12.1245,0,0,1,16.62744-11.25683l21.31494,8.52636A15.923,15.923,0,0,1,456,128.249v38.21L442.584,200H404.94434l-13.251-26.50195-6.4624-38.77539A3.01788,3.01788,0,0,1,386.86621,131.51074ZM118.27991,239.14185,136,229.47632v69.57934l-30.48389-15.24218ZM191.114,288h17.772l14.71557,125.084L200,436.68652,176.39844,413.084Zm19.11988-16H189.76611l-4.613-13.83911L200,243.314l14.84692,14.84693Zm19.5747-21.50488L211.31348,232l26.67834-26.678,8.64172,11.52222Zm-3.3938-56.22388L200,220.686l-26.41479-26.4148a63.76247,63.76247,0,0,0,52.82958,0ZM188.68652,232l-18.49511,18.49512-16.82495-33.65088,8.64172-11.52222ZM136,392.62671l-29.00684-53.17944L136,324.94409Zm16-142.738,8.84473,17.68945a7.99815,7.99815,0,0,0,11.60485,3.0691l3.39661,10.18969-15.7915,134.22852a8,8,0,0,0,2.28857,6.5918l32,32a8.00063,8.00063,0,0,0,11.31348,0l32-32a8,8,0,0,0,2.28857-6.5918l-15.7915-134.22852,3.39661-10.18969a7.999,7.999,0,0,0,11.60485-3.0691L248,249.88867V480H152ZM248,60v2.17383a18.60356,18.60356,0,0,1-2.21875-1.26758l-13.78857-9.19238A35.76947,35.76947,0,0,0,226.395,32.74561,28.04246,28.04246,0,0,1,248,60ZM176,32h20a20,20,0,0,1,0,40h-.68652a19.18715,19.18715,0,0,1-13.65674-5.65723A35.08383,35.08383,0,0,0,156.68652,56H152A24.02718,24.02718,0,0,1,176,32ZM152,136V72h4.68652a19.18715,19.18715,0,0,1,13.65674,5.65723A35.08383,35.08383,0,0,0,195.31348,88H196a36.03016,36.03016,0,0,0,32.0686-19.6731l8.83765,5.89185A34.33174,34.33174,0,0,0,248,79.04761V136a48,48,0,0,1-96,0ZM80,392v88H46.67676L32.16943,400.209l28.34375-120.46a24.02756,24.02756,0,0,1,11.86866-15.57226L98.56689,249.894,88.30762,285.80176a8.00019,8.00019,0,0,0,4.11474,9.35351L126.11133,312l-33.689,16.84473a8.00013,8.00013,0,0,0-3.44531,10.98632L136,426.03979V480H96V392ZM264,229.47656l74.57251,40.67554Q337.2688,271.05,336,272l-10.6665,8H288a8.00008,8.00008,0,0,0-8,8v24a8.00008,8.00008,0,0,0,8,8h17.052l-21.33325,32H280a8.00008,8.00008,0,0,0-8,8,40.04552,40.04552,0,0,0,40,40h13.44458l-12.30786,80H264ZM437.75391,480H330.24609l4-16h99.50782ZM376,448H334.2478l7.77613-50.5437A40.19261,40.19261,0,0,0,360,383.97217V384h16Zm24-88a40.02741,40.02741,0,0,0,.80493,8H392V296.81836A40.22928,40.22928,0,0,1,408,304l19.2002,14.40039A8.00222,8.00222,0,0,0,432,320h1.052l-21.33325,32H408A8.00008,8.00008,0,0,0,400,360Zm56,24H440a24.04118,24.04118,0,0,1-22.62891-16h61.25782A24.04118,24.04118,0,0,1,456,384Z"/></svg>
