<svg width="25" height="27" viewBox="0 0 25 27" fill="none" xmlns="http://www.w3.org/2000/svg">
<path d="M24.2813 11.8234C24.2941 11.7363 24.2941 11.6478 24.2813 11.5606V11.4791C24.26 11.3831 24.2233 11.2913 24.1726 11.2072L22.3601 8.48844C22.2208 8.30331 22.016 8.17853 21.7876 8.13973C21.5592 8.10094 21.3246 8.15107 21.1321 8.27983C20.9395 8.4086 20.8035 8.60622 20.7521 8.8321C20.7007 9.05798 20.7378 9.29496 20.8557 9.49438L21.7619 10.8084H18.8438V1.71875C18.8438 1.4784 18.7483 1.24789 18.5784 1.07793C18.4084 0.90798 18.1779 0.8125 17.9376 0.8125H1.62506H1.53443H1.38943C1.30971 0.835211 1.23348 0.868753 1.16287 0.912187H1.08131C1.01381 0.972666 0.955772 1.04293 0.909122 1.12062C0.88615 1.14951 0.864965 1.17978 0.845684 1.21125C0.754426 1.36427 0.710295 1.54079 0.718809 1.71875V21.6562C0.719662 21.768 0.741169 21.8786 0.782246 21.9825C0.795649 22.0135 0.810777 22.0438 0.827559 22.0731C0.859457 22.138 0.89901 22.1989 0.945371 22.2544L1.02693 22.3359C1.0796 22.3817 1.13738 22.4212 1.19912 22.4537L1.30787 22.5081H1.36225L14.0497 26.1331C14.1342 26.1642 14.2227 26.1825 14.3126 26.1875C14.5529 26.1875 14.7834 26.092 14.9534 25.9221C15.1233 25.7521 15.2188 25.5216 15.2188 25.2812V22.5625H17.9376C18.1779 22.5625 18.4084 22.467 18.5784 22.2971C18.7483 22.1271 18.8438 21.8966 18.8438 21.6562V12.5938H21.6804L20.7741 13.9078C20.7 14.0063 20.6468 14.1189 20.6177 14.2386C20.5886 14.3584 20.5843 14.4828 20.6049 14.6043C20.6256 14.7258 20.6708 14.8418 20.7378 14.9453C20.8048 15.0487 20.8922 15.1374 20.9946 15.2059C21.0971 15.2744 21.2124 15.3213 21.3336 15.3437C21.4548 15.3661 21.5793 15.3636 21.6995 15.3362C21.8196 15.3089 21.933 15.2573 22.0325 15.1847C22.1321 15.112 22.2158 15.0198 22.2785 14.9137L24.091 12.195C24.1329 12.1182 24.1634 12.0358 24.1816 11.9503C24.1816 11.9503 24.2813 11.8325 24.2813 11.8234ZM17.0313 10.7812H15.2188V5.34375C15.2263 5.14034 15.1652 4.94033 15.0451 4.77593C14.9251 4.61153 14.7533 4.49232 14.5572 4.4375L8.09568 2.625H17.0313V10.7812ZM17.0313 20.75H15.2188V12.5938H17.0313V20.75Z" fill="#333333"/>
</svg>
