<?xml version="1.0"?>
<svg xmlns="http://www.w3.org/2000/svg" id="Layer_3" data-name="Layer 3" viewBox="0 0 64 64" width="512" height="512"><path d="M62,43H61V11a6.006,6.006,0,0,0-6-6H36.9a5,5,0,0,0-9.8,0H9a6.006,6.006,0,0,0-6,6V43H2a1,1,0,0,0-1,1v4a5.006,5.006,0,0,0,5,5H32.525A8.936,8.936,0,0,0,32,56v6a1,1,0,0,0,1,1H57a1,1,0,0,0,1-1V56a8.936,8.936,0,0,0-.525-3H58a5.006,5.006,0,0,0,5-5V44A1,1,0,0,0,62,43ZM59,11V43H52.737A7.953,7.953,0,0,0,53,41h3a1,1,0,0,0,1-1V10a1,1,0,0,0-1-1H35.974A4.954,4.954,0,0,0,36.9,7H55A4,4,0,0,1,59,11ZM45,47a6.006,6.006,0,0,1-6-6V39a6,6,0,0,1,12,0v2A6.006,6.006,0,0,1,45,47Zm-8-8H35V26H55V39H53a8,8,0,0,0-4.007-6.922c0-.026.007-.052.007-.078a4,4,0,0,0-8,0c0,.026.006.052.007.078A8,8,0,0,0,37,39ZM33,11V39H9V11ZM55,24H51.91a6.012,6.012,0,0,0-3.74-4.588A3.96,3.96,0,0,0,49,17a4,4,0,0,0-8,0,3.96,3.96,0,0,0,.83,2.412A6.012,6.012,0,0,0,38.09,24H35V11H55ZM45,19a2,2,0,1,1,2-2A2,2,0,0,1,45,19Zm-1,2h2a4,4,0,0,1,3.858,3H40.142A4,4,0,0,1,44,21Zm2.843,10.223a7.727,7.727,0,0,0-3.686,0,2,2,0,0,1,3.686,0ZM32,3a3,3,0,1,1-3,3A3,3,0,0,1,32,3ZM5,11A4,4,0,0,1,9,7H27.1a4.954,4.954,0,0,0,.925,2H8a1,1,0,0,0-1,1V40a1,1,0,0,0,1,1H37a7.953,7.953,0,0,0,.263,2H5ZM6,51a3,3,0,0,1-3-3V45H38.082a8.052,8.052,0,0,0,1.739,2.086A9.007,9.007,0,0,0,33.522,51ZM56,61H53V57H51v4H39V57H37v4H34V56a7.008,7.008,0,0,1,7-7h8a7.008,7.008,0,0,1,7,7Zm5-13a3,3,0,0,1-3,3H56.478a9.007,9.007,0,0,0-6.3-3.914A8.052,8.052,0,0,0,51.918,45H61Z"/><rect x="31" y="5" width="2" height="2"/><path d="M12,37H30a1,1,0,0,0,1-1V32a7.01,7.01,0,0,0-5.66-6.868A5.972,5.972,0,0,0,27,21V19a6,6,0,0,0-12,0v2a5.972,5.972,0,0,0,1.66,4.132A7.01,7.01,0,0,0,11,32v4A1,1,0,0,0,12,37ZM23,27a2,2,0,0,1-4,0Zm-6-8a4,4,0,0,1,8,0v2a4,4,0,0,1-8,0ZM13,32a5.008,5.008,0,0,1,4.01-4.9,3.991,3.991,0,0,0,7.98,0A5.008,5.008,0,0,1,29,32v3H27V31H25v4H17V31H15v4H13Z"/></svg>
