<?xml version="1.0" encoding="iso-8859-1"?>
<!-- Generator: Adobe Illustrator 19.0.0, SVG Export Plug-In . SVG Version: 6.00 Build 0)  -->
<svg version="1.1" id="Capa_1" xmlns="http://www.w3.org/2000/svg" xmlns:xlink="http://www.w3.org/1999/xlink" x="0px" y="0px"
	 viewBox="0 0 512 512" style="enable-background:new 0 0 512 512;" xml:space="preserve">
<g>
	<g>
		<path d="M433.103,254.829v-98.78C433.103,70.003,363.101,0,277.055,0h-42.109c-86.047,0-156.05,70.003-156.05,156.049v98.78
			c-25.041,6.771-42.984,29.573-42.984,56.291c0,15.429,6.036,31.328,16.561,43.621c11.367,13.278,26.197,20.589,41.76,20.589
			c0.003,0,0.006,0,0.009,0h21.887V502c0,5.522,4.478,10,10,10h259.742c5.522,0,10-4.478,10-10V375.33h21.875
			c0.004,0,0.006,0,0.009,0c15.568-0.001,30.404-7.313,41.771-20.589c10.525-12.292,16.561-28.191,16.561-43.621
			C476.088,284.402,458.145,261.6,433.103,254.829z M375.872,492L375.872,492H136.13v-21.446h168.795c5.522,0,10-4.478,10-10
			c0-5.522-4.478-10-10-10H136.13V375.33h41.345l71.622,68.362c3.863,3.689,9.945,3.689,13.809,0l71.622-68.362h41.345V492z
			 M230.227,326.044c-51.892-12.522-88.133-60.185-88.133-115.907V172.68l84.12-62.056c6.952,3.466,18.742,9.306,32.835,16.137
			c1.566,0.759,3.16,1.53,4.779,2.312c0.81,0.391,1.625,0.784,2.447,1.18c35.331,17.016,81.393,38.37,103.631,45.205v34.679
			c0,53.98-34.012,100.398-83.314,114.631c-1.59,0.459-3.197,0.885-4.818,1.276c-5.363,1.294-8.665,6.687-7.379,12.051l7.085,29.564
			c1.078,4.498,5.1,7.67,9.725,7.67h14.356L256,422.635l-49.561-47.307h14.356c4.625,0,8.646-3.172,9.725-7.669l7.086-29.564
			C238.893,332.73,235.59,327.338,230.227,326.044z M444.335,341.733c-7.508,8.769-16.947,13.597-26.582,13.597
			c-0.001,0-0.003,0-0.005,0H385.91c-0.013,0-0.025-0.002-0.039-0.002h-55.35h-31.43l-3.012-12.566
			c25.176-8.208,47.781-24.19,64.426-45.725c18.959-24.528,29.4-55.391,29.4-86.9V167.63c0-4.014-2.383-7.517-5.872-9.1
			c-0.918-0.417-1.909-0.708-2.958-0.832c-10.336-1.219-50.695-19.145-91.4-38.443c-0.969-0.46-1.938-0.92-2.908-1.381
			c-3.876-1.843-7.75-3.696-11.594-5.544c-0.961-0.462-1.92-0.924-2.878-1.385c-2.871-1.384-5.723-2.764-8.543-4.134
			c-12.223-5.937-23.87-11.691-34.061-16.807c-3.365-1.69-7.394-1.346-10.423,0.89l-93.113,68.689
			c-2.556,1.885-4.063,4.871-4.063,8.047v42.507c0,31.51,10.441,62.372,29.4,86.9c16.644,21.533,39.252,37.516,64.427,45.725
			l-3.013,12.566h-31.43h-55.35c-0.013,0-0.026,0.002-0.039,0.002H94.24c-0.002,0-0.003,0-0.005,0
			c-9.628,0-19.064-4.829-26.57-13.596c-7.359-8.596-11.753-20.041-11.753-30.614c0-19.576,14.651-35.952,34.08-38.094
			c5.068-0.558,8.904-4.841,8.904-9.939V156.049C98.896,81.031,159.928,20,234.945,20h42.109
			c75.018,0,136.049,61.031,136.049,136.049v107.038c0,5.099,3.836,9.382,8.904,9.939c19.429,2.142,34.08,18.518,34.08,38.094
			C456.088,321.694,451.694,333.139,444.335,341.733z"/>
	</g>
</g>
<g>
	<g>
		<path d="M294.641,269.129c-3.227-4.481-9.476-5.499-13.958-2.271c-14.764,10.631-34.601,10.631-49.365,0
			c-4.482-3.228-10.731-2.211-13.958,2.271c-3.228,4.482-2.211,10.73,2.27,13.958c10.877,7.834,23.623,11.751,36.37,11.751
			c12.747,0,25.493-3.917,36.37-11.751C296.852,279.859,297.868,273.61,294.641,269.129z"/>
	</g>
</g>
<g>
	<g>
		<path d="M347.528,168.482h-76.205c-5.522,0-10,4.478-10,10v16.272h-10.645v-16.272c0-5.522-4.478-10-10-10h-76.205
			c-5.523,0-10,4.478-10,10v52.546c0,5.522,4.477,10,10,10h76.205c5.522,0,10-4.477,10-10v-16.273h10.645v16.273
			c0,5.522,4.478,10,10,10h76.205c5.522,0,10-4.478,10-10v-52.546C357.528,172.96,353.051,168.482,347.528,168.482z
			 M230.678,221.028h-56.205v-32.546h56.205V221.028z M337.527,221.028h-56.205v-32.546h0h56.205V221.028z"/>
	</g>
</g>
<g>
	<g>
		<path d="M356.309,458.6c-0.13-0.64-0.319-1.27-0.569-1.87c-0.25-0.609-0.561-1.189-0.921-1.729
			c-0.369-0.55-0.779-1.06-1.239-1.521c-0.471-0.46-0.98-0.88-1.521-1.239c-0.55-0.36-1.13-0.671-1.729-0.921
			c-0.601-0.25-1.23-0.439-1.87-0.569c-1.29-0.26-2.62-0.26-3.91,0c-0.64,0.13-1.27,0.319-1.87,0.569
			c-0.6,0.25-1.189,0.561-1.729,0.921c-0.551,0.359-1.061,0.779-1.521,1.239c-0.46,0.46-0.88,0.971-1.24,1.521
			c-0.359,0.54-0.67,1.12-0.92,1.729c-0.25,0.601-0.439,1.23-0.569,1.87c-0.131,0.641-0.2,1.3-0.2,1.95s0.069,1.309,0.2,1.96
			c0.13,0.64,0.319,1.26,0.569,1.87c0.25,0.6,0.561,1.18,0.92,1.72c0.36,0.55,0.78,1.061,1.24,1.52c0.46,0.46,0.97,0.88,1.521,1.25
			c0.54,0.359,1.13,0.67,1.729,0.92c0.601,0.25,1.23,0.439,1.87,0.569c0.64,0.131,1.3,0.19,1.95,0.19c0.66,0,1.31-0.06,1.96-0.19
			c0.64-0.13,1.27-0.319,1.87-0.569c0.6-0.25,1.18-0.561,1.729-0.92c0.54-0.37,1.05-0.79,1.521-1.25
			c0.46-0.46,0.87-0.971,1.239-1.52c0.36-0.54,0.671-1.12,0.921-1.72c0.25-0.61,0.439-1.23,0.569-1.87c0.13-0.65,0.2-1.31,0.2-1.96
			C356.509,459.9,356.439,459.24,356.309,458.6z"/>
	</g>
</g>
<g>
	<g>
		<path d="M187,402h-29.5c-5.523,0-10,4.478-10,10c0,5.522,4.477,10,10,10H187c5.523,0,10-4.478,10-10
			C197,406.478,192.523,402,187,402z"/>
	</g>
</g>
<g>
</g>
<g>
</g>
<g>
</g>
<g>
</g>
<g>
</g>
<g>
</g>
<g>
</g>
<g>
</g>
<g>
</g>
<g>
</g>
<g>
</g>
<g>
</g>
<g>
</g>
<g>
</g>
<g>
</g>
</svg>
